<mxfile host="app.diagrams.net" modified="2023-07-25T23:54:13.261Z" agent="Mozilla/5.0 (Macintosh; Intel Mac OS X 10_15_7) AppleWebKit/537.36 (KHTML, like Gecko) Chrome/114.0.0.0 Safari/537.36" version="21.6.2" etag="gDCSBpZrMlrBb_XeR0Jz" type="github">
  <diagram name="페이지-1" id="p05xnxKVSjbwfjYjSLWG">
    <mxGraphModel>
      <root>
        <mxCell id="0" />
        <mxCell id="1" parent="0" />
      </root>
    </mxGraphModel>
  </diagram>
</mxfile>
